<?xml version="1.0" encoding="UTF-8"?>
<!DOCTYPE svg PUBLIC "-//W3C//DTD SVG 1.1//EN" "http://www.w3.org/Graphics/SVG/1.1/DTD/svg11.dtd">
<svg xmlns="http://www.w3.org/2000/svg" version="1.1" width="386px" height="381px" style="shape-rendering:geometricPrecision; text-rendering:geometricPrecision; image-rendering:optimizeQuality; fill-rule:evenodd; clip-rule:evenodd" xmlns:xlink="http://www.w3.org/1999/xlink">
<g><path style="opacity:0.943" fill="#552d0c" d="M 203.5,67.5 C 203.5,67.8333 203.5,68.1667 203.5,68.5C 193.512,67.3873 183.512,67.3873 173.5,68.5C 183.287,66.2105 193.287,65.8772 203.5,67.5 Z"/></g>
<g><path style="opacity:0.021" fill="#030202" d="M 207.5,66.5 C 242.282,76.2932 260.948,99.2932 263.5,135.5C 260.386,175.113 239.386,198.946 200.5,207C 167.482,209.411 142.982,196.245 127,167.5C 125.864,164.904 125.031,162.237 124.5,159.5C 139.868,191.027 165.201,205.194 200.5,202C 210.578,200.373 219.578,196.54 227.5,190.5C 236.298,185.957 243.132,179.29 248,170.5C 249.122,168.593 249.955,166.593 250.5,164.5C 253.509,160.794 255.176,156.461 255.5,151.5C 263.158,109.816 247.158,81.4824 207.5,66.5 Z"/></g>
<g><path style="opacity:1" fill="#421002" d="M 203.5,68.5 C 225.292,73.1189 241.125,85.4522 251,105.5C 255.036,114.214 256.869,123.381 256.5,133C 256.246,139.176 255.912,145.343 255.5,151.5C 253.036,155.444 251.37,159.777 250.5,164.5C 244.291,174.38 236.625,183.047 227.5,190.5C 193.11,209.055 162.61,204.055 136,175.5C 124.487,160.446 119.987,143.446 122.5,124.5C 127.684,94.9862 144.684,76.3196 173.5,68.5C 183.512,67.3873 193.512,67.3873 203.5,68.5 Z"/></g>
<g><path style="opacity:0.271" fill="#bca375" d="M 206.5,66.5 C 205.791,67.404 204.791,67.7373 203.5,67.5C 193.287,65.8772 183.287,66.2105 173.5,68.5C 144.684,76.3196 127.684,94.9862 122.5,124.5C 121.833,130.167 121.167,135.833 120.5,141.5C 119.262,104.134 136.262,79.3004 171.5,67C 183.284,63.9885 194.951,63.8218 206.5,66.5 Z"/></g>
<g><path style="opacity:0.443" fill="#9e845a" d="M 206.5,66.5 C 206.833,66.5 207.167,66.5 207.5,66.5C 247.158,81.4824 263.158,109.816 255.5,151.5C 255.912,145.343 256.246,139.176 256.5,133C 256.869,123.381 255.036,114.214 251,105.5C 241.125,85.4522 225.292,73.1189 203.5,68.5C 203.5,68.1667 203.5,67.8333 203.5,67.5C 204.791,67.7373 205.791,67.404 206.5,66.5 Z"/></g>
<g><path style="opacity:0.231" fill="#a88664" d="M 212.5,94.5 C 222.842,94.7761 223.009,95.7761 213,97.5C 212.333,103.833 212.333,110.167 213,116.5C 215.147,117.113 217.314,117.779 219.5,118.5C 218.333,118.833 217.167,119.167 216,119.5C 213.074,118.736 210.241,117.736 207.5,116.5C 197.506,119.492 187.673,119.159 178,115.5C 174.861,116.426 171.694,116.592 168.5,116C 165.033,114.502 161.366,113.502 157.5,113C 155.675,111.534 155.175,109.701 156,107.5C 163.285,101.943 171.451,98.1095 180.5,96C 190.502,96.4991 200.502,97.3325 210.5,98.5C 210.527,96.8007 211.194,95.4674 212.5,94.5 Z"/></g>
<g><path style="opacity:0.933" fill="#603b0b" d="M 170.5,109.5 C 171.774,110.189 171.774,111.023 170.5,112C 168.833,112.667 167.167,112.667 165.5,112C 167.315,111.243 168.981,110.41 170.5,109.5 Z"/></g>
<g><path style="opacity:1" fill="#451404" d="M 177.5,98.5 C 188.547,98.4636 199.547,99.1302 210.5,100.5C 210.8,105.099 210.467,109.599 209.5,114C 198.146,117.922 187.146,117.255 176.5,112C 173.612,109.704 174.112,108.538 178,108.5C 181.771,109.09 185.438,110.09 189,111.5C 189.5,111.167 190,110.833 190.5,110.5C 184.644,106.86 178.311,105.693 171.5,107C 167.436,109.724 163.103,110.558 158.5,109.5C 159.313,108.186 160.313,107.019 161.5,106C 166.804,103.178 172.137,100.678 177.5,98.5 Z"/></g>
<g><path style="opacity:0.349" fill="#a78561" d="M 188.5,121.5 C 193.406,124.898 197.906,128.898 202,133.5C 202.333,135.934 201.166,136.934 198.5,136.5C 198.784,139.777 198.451,142.943 197.5,146C 191.843,146.499 186.176,146.666 180.5,146.5C 180.5,143.167 180.5,139.833 180.5,136.5C 179.167,136.5 177.833,136.5 176.5,136.5C 176.284,134.319 177.117,132.653 179,131.5C 179.497,128.854 179.664,126.187 179.5,123.5C 182.187,123.664 184.854,123.497 187.5,123C 188.056,122.617 188.389,122.117 188.5,121.5 Z"/></g>
<g><path style="opacity:0.998" fill="#4b1b0a" d="M 188.5,124.5 C 191.731,126.22 194.564,128.553 197,131.5C 196.733,135.441 196.566,139.441 196.5,143.5C 195.5,143.5 194.5,143.5 193.5,143.5C 194.788,136.712 192.288,134.379 186,136.5C 185.503,138.81 185.337,141.143 185.5,143.5C 184.5,143.5 183.5,143.5 182.5,143.5C 182.197,137.815 182.03,132.148 182,126.5C 182.419,127.672 183.085,128.672 184,129.5C 185.966,128.22 187.466,126.553 188.5,124.5 Z"/></g>
<g><path style="opacity:1" fill="#4b1b08" d="M 188.5,137.5 C 189.496,137.414 190.329,137.748 191,138.5C 191.494,140.134 191.66,141.801 191.5,143.5C 190.167,143.5 188.833,143.5 187.5,143.5C 187.325,141.379 187.659,139.379 188.5,137.5 Z"/></g>
<g><path style="opacity:0.004" fill="#111111" d="M 121.5,149.5 C 123.277,152.505 124.277,155.838 124.5,159.5C 122.723,156.495 121.723,153.162 121.5,149.5 Z"/></g>
<g><path style="opacity:0.268" fill="#a88663" d="M 159.5,149.5 C 163.84,149.349 167.84,150.349 171.5,152.5C 181.469,149.593 191.302,149.926 201,153.5C 204.139,152.574 207.306,152.408 210.5,153C 213.977,154.8 217.644,156.133 221.5,157C 223.815,159.476 223.482,161.809 220.5,164C 205.487,172.863 189.654,174.696 173,169.5C 170.105,169.443 167.938,170.61 166.5,173C 157.505,173.227 157.338,172.394 166,170.5C 166.499,164.509 166.666,158.509 166.5,152.5C 164.143,152.663 161.81,152.497 159.5,152C 158.402,151.23 158.402,150.397 159.5,149.5 Z"/></g>
<g><path style="opacity:0.941" fill="#5d380d" d="M 209.5,156.5 C 210.873,156.343 212.207,156.51 213.5,157C 211.649,157.837 209.816,158.671 208,159.5C 207.761,158.212 208.261,157.212 209.5,156.5 Z"/></g>
<g><path style="opacity:1" fill="#431104" d="M 204.5,163.5 C 206.429,163.231 208.095,163.731 209.5,165C 205.981,165.395 202.648,166.395 199.5,168C 189.482,168.054 179.482,167.554 169.5,166.5C 169.5,162.833 169.5,159.167 169.5,155.5C 176.291,153.818 183.291,152.984 190.5,153C 195.709,153.943 200.376,155.943 204.5,159C 204.266,160.732 203.266,161.566 201.5,161.5C 197.618,160.309 193.785,158.976 190,157.5C 188.174,158.01 188.007,158.844 189.5,160C 194.302,162.103 199.302,163.269 204.5,163.5 Z"/></g>
<g><path style="opacity:0.188" fill="#927b57" d="M 255.5,151.5 C 255.176,156.461 253.509,160.794 250.5,164.5C 251.37,159.777 253.036,155.444 255.5,151.5 Z"/></g>
<g><path style="opacity:1" fill="#4d2009" d="M 169.5,155.5 C 169.5,159.167 169.5,162.833 169.5,166.5C 179.482,167.554 189.482,168.054 199.5,168C 202.648,166.395 205.981,165.395 209.5,165C 208.095,163.731 206.429,163.231 204.5,163.5C 209.252,160.251 214.585,158.584 220.5,158.5C 220.439,160.592 219.439,162.092 217.5,163C 212.189,165.993 206.522,167.993 200.5,169C 189.8,169.33 179.134,168.83 168.5,167.5C 168.183,163.298 168.517,159.298 169.5,155.5 Z"/></g>
<g><path style="opacity:0.192" fill="#917a56" d="M 250.5,164.5 C 249.955,166.593 249.122,168.593 248,170.5C 243.132,179.29 236.298,185.957 227.5,190.5C 236.625,183.047 244.291,174.38 250.5,164.5 Z"/></g>
<g><path style="opacity:0.388" fill="#a0875f" d="M 122.5,124.5 C 119.987,143.446 124.487,160.446 136,175.5C 162.61,204.055 193.11,209.055 227.5,190.5C 219.578,196.54 210.578,200.373 200.5,202C 165.201,205.194 139.868,191.027 124.5,159.5C 124.277,155.838 123.277,152.505 121.5,149.5C 120.612,146.946 120.279,144.279 120.5,141.5C 121.167,135.833 121.833,130.167 122.5,124.5 Z"/></g>
</svg>
