<?xml version="1.0" encoding="UTF-8"?>
<svg version="1.1" xmlns="http://www.w3.org/2000/svg" width="390" height="397">
<path d="M0 0 C128.7 0 257.4 0 390 0 C390 131.01 390 262.02 390 397 C261.3 397 132.6 397 0 397 C0 265.99 0 134.98 0 0 Z " fill="#FBF6ED" transform="translate(0,0)"/>
<path d="M0 0 C0.76699219 0.25523438 1.53398437 0.51046875 2.32421875 0.7734375 C18.38234356 7.05830502 31.22674384 19.87686764 39 35 C43.2102659 44.67073073 45.17980207 53.35100839 45.1875 63.8125 C45.19974609 64.67681641 45.21199219 65.54113281 45.22460938 66.43164062 C45.23719099 71.98851972 44.5413809 76.66225502 43 82 C42.82339844 82.81726563 42.64679688 83.63453125 42.46484375 84.4765625 C38.86886317 99.12685377 27.04969753 113.28698338 14.66015625 121.40625 C-2.010908 131.39420039 -19.89553496 135.04290491 -39.2109375 131.30859375 C-57.164707 126.57244484 -72.12056337 114.98644582 -81.75 99.1875 C-90.72893292 83.02542075 -94.21219957 65.22803363 -89.56640625 47.06225586 C-84.24549578 29.08559288 -72.4038713 13.87804135 -56.1953125 4.3515625 C-39.22404357 -4.68508719 -18.30661156 -6.16474474 0 0 Z " fill="#161108" transform="translate(220,83)"/>
<path d="M0 0 C2.31 0 4.62 0 7 0 C7 0.66 7 1.32 7 2 C4.69 2 2.38 2 0 2 C0 8.93 0 15.86 0 23 C2.31 23 4.62 23 7 23 C7 23.66 7 24.32 7 25 C4.69 25 2.38 25 0 25 C-0.495 23.515 -0.495 23.515 -1 22 C-2.34191406 22.2165625 -2.34191406 22.2165625 -3.7109375 22.4375 C-21.59763314 25.18343195 -21.59763314 25.18343195 -27.875 23 C-31.1851334 21.94075731 -33.48424228 21.96408002 -36.9375 22.0625 C-42.26590896 22.16129621 -45.31077933 21.43839475 -50 19 C-51.99263591 18.31163487 -53.99041337 17.63718601 -56 17 C-55.9375 14.8125 -55.9375 14.8125 -55 12 C-46.92974253 4.6634023 -35.7790561 1.21212219 -25 1 C-20.92566647 1.28609529 -16.91317198 1.83382925 -12.875 2.4375 C-11.823125 2.58509766 -10.77125 2.73269531 -9.6875 2.88476562 C-7.12331674 3.24608236 -4.56116459 3.61797082 -2 4 C-1.34 2.68 -0.68 1.36 0 0 Z " fill="#1A150C" transform="translate(220,108)"/>
<path d="M0 0 C2.33294775 -0.04241723 4.66702567 -0.04092937 7 0 C7.33 0.33 7.66 0.66 8 1 C13.57901029 1.40531271 19.13531251 0.91417196 24.6875 0.375 C29.7160905 -0.05284045 33.16389727 0.50520461 38 2 C39.99998742 2.02200811 42.00077105 1.99680964 44 1.9375 C49.30122814 1.83834985 52.33303238 2.57317684 57 5 C58.99263591 5.68836513 60.99041337 6.36281399 63 7 C62.9375 9.1875 62.9375 9.1875 62 12 C53.08759748 20.30473871 41.27194907 21.60049487 29.6015625 21.20703125 C25.6825692 20.98175289 21.88511172 20.54527884 18 20 C16.3770131 19.88388386 14.75132379 19.80138464 13.125 19.75 C12.01511719 19.71132812 12.01511719 19.71132812 10.8828125 19.671875 C10.26148438 19.78015625 9.64015625 19.8884375 9 20 C8.34 20.99 7.68 21.98 7 23 C3.375 23.1875 3.375 23.1875 0 23 C0 22.34 0 21.68 0 21 C2.31 21 4.62 21 7 21 C6.67 14.73 6.34 8.46 6 2 C3.03 1.505 3.03 1.505 0 1 C0 0.67 0 0.34 0 0 Z " fill="#1D180F" transform="translate(167,164)"/>
<path d="M0 0 C3.96 0 7.92 0 12 0 C16 4 16 4 16.50170898 6.9609375 C16.49985596 8.08757812 16.49800293 9.21421875 16.49609375 10.375 C16.49673828 11.60734375 16.49738281 12.8396875 16.49804688 14.109375 C16.47806641 15.39328125 16.45808594 16.6771875 16.4375 18 C16.44458984 19.28390625 16.45167969 20.5678125 16.45898438 21.890625 C16.38612603 32.60640567 16.38612603 32.60640567 13 36 C10 37 10 37 0 37 C0 24.79 0 12.58 0 0 Z " fill="#F5EFE6" transform="translate(185,257)"/>
<path d="M0 0 C3.1850357 1.76015131 3.83296972 2.49890916 5 6 C5.25853371 9.95399893 5.23137931 13.91344802 5.25 17.875 C5.270625 18.96425781 5.29125 20.05351562 5.3125 21.17578125 C5.31765625 22.22894531 5.3228125 23.28210938 5.328125 24.3671875 C5.34214355 25.80747314 5.34214355 25.80747314 5.35644531 27.27685547 C4.9303999 30.53172568 3.93250849 32.36501844 2 35 C-1 37 -1 37 -4.5 36.8125 C-9.057444 35.75452193 -9.057444 35.75452193 -11 33 C-11.56641136 28.87974236 -11.47267023 24.75933065 -11.44604492 20.60327148 C-11.43754133 18.57237181 -11.46628379 16.5442931 -11.49804688 14.51367188 C-11.49740234 13.23169922 -11.49675781 11.94972656 -11.49609375 10.62890625 C-11.49794678 9.45400635 -11.4997998 8.27910645 -11.50170898 7.06860352 C-10.39942325 0.32669143 -6.25869339 -0.78233667 0 0 Z " fill="#F9F3EB" transform="translate(101,257)"/>
<path d="M0 0 C3.63061667 1.53218685 5.9863773 3.7183144 8.75 6.5 C9.54921875 7.2940625 10.3484375 8.088125 11.171875 8.90625 C13 11 13 11 13 13 C12.01 13 11.02 13 10 13 C10.01160156 13.71027344 10.02320313 14.42054688 10.03515625 15.15234375 C10.04417969 16.07144531 10.05320313 16.99054688 10.0625 17.9375 C10.07410156 18.85402344 10.08570313 19.77054688 10.09765625 20.71484375 C10 23 10 23 9 24 C6.3226862 24.09981214 3.67695825 24.13879875 1 24.125 C-0.12535156 24.13080078 -0.12535156 24.13080078 -1.2734375 24.13671875 C-6.87338947 24.12661053 -6.87338947 24.12661053 -8 23 C-8.07205511 21.31391034 -8.08386068 19.62499341 -8.0625 17.9375 C-8.05347656 17.01839844 -8.04445312 16.09929687 -8.03515625 15.15234375 C-8.01775391 14.08693359 -8.01775391 14.08693359 -8 13 C-8.99 13 -9.98 13 -11 13 C-10.34 9.37 -9.68 5.74 -9 2 C-7.329375 2.061875 -7.329375 2.061875 -5.625 2.125 C-1.95633975 2.41121859 -1.95633975 2.41121859 0 0 Z " fill="#221D14" transform="translate(196,136)"/>
<path d="M0 0 C2.31 0 4.62 0 7 0 C7 0.66 7 1.32 7 2 C4.69 2 2.38 2 0 2 C0 8.93 0 15.86 0 23 C2.31 23 4.62 23 7 23 C7 23.66 7 24.32 7 25 C4.69 25 2.38 25 0 25 C-0.495 23.515 -0.495 23.515 -1 22 C-2.34191406 22.2165625 -2.34191406 22.2165625 -3.7109375 22.4375 C-21.59763314 25.18343195 -21.59763314 25.18343195 -27.875 23 C-31.1851334 21.94075731 -33.48424228 21.96408002 -36.9375 22.0625 C-42.26590896 22.16129621 -45.31077933 21.43839475 -50 19 C-51.99263591 18.31163487 -53.99041337 17.63718601 -56 17 C-55.9375 14.8125 -55.9375 14.8125 -55 12 C-46.92974253 4.6634023 -35.7790561 1.21212219 -25 1 C-20.92566647 1.28609529 -16.91317198 1.83382925 -12.875 2.4375 C-11.823125 2.58509766 -10.77125 2.73269531 -9.6875 2.88476562 C-7.12331674 3.24608236 -4.56116459 3.61797082 -2 4 C-1.34 2.68 -0.68 1.36 0 0 Z M-55 14 C-55 14.66 -55 15.32 -55 16 C-50.86325855 16.25854634 -47.95172352 16.13673114 -44.125 14.5 C-38.06117404 12.04169218 -32.54102215 12.23943624 -26.4375 14.5 C-25.303125 14.995 -24.16875 15.49 -23 16 C-24.03125 15.67 -25.0625 15.34 -26.125 15 C-29.48426709 14.0284808 -32.49106202 13.82883229 -36 14 C-36.33 15.32 -36.66 16.64 -37 18 C-25.5612359 23.90387825 -14.24060284 22.64661683 -2 20 C-2 15.38 -2 10.76 -2 6 C-5.31144048 5.49194338 -8.62386727 4.99337791 -11.9375 4.5 C-12.86369141 4.35691406 -13.78988281 4.21382813 -14.74414062 4.06640625 C-29.38568793 1.90870454 -43.44638233 3.577292 -55 14 Z " fill="#B4B0A8" transform="translate(220,108)"/>
<path d="M0 0 C2.33294775 -0.04241723 4.66702567 -0.04092937 7 0 C7.33 0.33 7.66 0.66 8 1 C13.57901029 1.40531271 19.13531251 0.91417196 24.6875 0.375 C29.7160905 -0.05284045 33.16389727 0.50520461 38 2 C39.99998742 2.02200811 42.00077105 1.99680964 44 1.9375 C49.30122814 1.83834985 52.33303238 2.57317684 57 5 C58.99263591 5.68836513 60.99041337 6.36281399 63 7 C62.9375 9.1875 62.9375 9.1875 62 12 C53.08759748 20.30473871 41.27194907 21.60049487 29.6015625 21.20703125 C25.6825692 20.98175289 21.88511172 20.54527884 18 20 C16.3770131 19.88388386 14.75132379 19.80138464 13.125 19.75 C12.01511719 19.71132812 12.01511719 19.71132812 10.8828125 19.671875 C10.26148438 19.78015625 9.64015625 19.8884375 9 20 C8.34 20.99 7.68 21.98 7 23 C3.375 23.1875 3.375 23.1875 0 23 C0 22.34 0 21.68 0 21 C2.31 21 4.62 21 7 21 C6.67 14.73 6.34 8.46 6 2 C3.03 1.505 3.03 1.505 0 1 C0 0.67 0 0.34 0 0 Z M9 4 C9 8.29 9 12.58 9 17 C12.33238991 17.50710281 15.66568377 18.00586235 19 18.5 C19.93457031 18.64308594 20.86914062 18.78617188 21.83203125 18.93359375 C34.33946759 20.77035014 46.72264084 20.08060202 57.875 13.4375 C61.20669771 11.30248826 61.20669771 11.30248826 62 8 C57.50968806 7.76366779 54.82410462 7.62682055 50.6875 9.5 C45.78514133 11.4941798 41.23760648 11.61760444 36 11 C34.65368732 10.35994971 33.3180128 9.69646571 32 9 C31.01 9 30.02 9 29 9 C29 8.34 29 7.68 29 7 C29.65226562 7.28875 30.30453125 7.5775 30.9765625 7.875 C35.79241835 9.92067328 39.6591018 11.56219981 45 11 C45 9.68 45 8.36 45 7 C32.21078572 1.00940943 22.85875814 1.66589337 9 4 Z " fill="#C6C2BB" transform="translate(167,164)"/>
<path d="M0 0 C1.65 0.33 3.3 0.66 5 1 C5.10546143 1.54301758 5.21092285 2.08603516 5.31958008 2.64550781 C8.06943682 16.79034159 8.06943682 16.79034159 11.484375 30.78515625 C12 33 12 33 12 36 C10.515 35.505 10.515 35.505 9 35 C8.67 33.02 8.34 31.04 8 29 C4.04 29 0.08 29 -4 29 C-4.33 31.31 -4.66 33.62 -5 36 C-5.66 36 -6.32 36 -7 36 C-6.33015012 28.13986276 -4.69766584 20.61933744 -2.9375 12.9375 C-2.65583984 11.69033203 -2.37417969 10.44316406 -2.08398438 9.15820312 C-1.39367318 6.10445361 -0.69891018 3.0517908 0 0 Z " fill="#5B554C" transform="translate(247,257)"/>
<path d="M0 0 C1.32 0 2.64 0 4 0 C5.12574941 3.20807087 6.25046436 6.41650348 7.375 9.625 C7.69210938 10.52863281 8.00921875 11.43226563 8.3359375 12.36328125 C8.6453125 13.24628906 8.9546875 14.12929688 9.2734375 15.0390625 C9.55622559 15.84553223 9.83901367 16.65200195 10.13037109 17.48291016 C11.1086632 20.31451925 12.05263178 23.15789533 13 26 C13.33 17.42 13.66 8.84 14 0 C14.99 0 15.98 0 17 0 C17 12.21 17 24.42 17 37 C15.68 36.67 14.36 36.34 13 36 C11.93505859 34.03808594 11.93505859 34.03808594 11.1484375 31.484375 C10.85453125 30.56269531 10.560625 29.64101563 10.2578125 28.69140625 C9.96648437 27.72074219 9.67515625 26.75007813 9.375 25.75 C8.77969876 23.84862835 8.18337623 21.9475761 7.5859375 20.046875 C7.3286084 19.19963867 7.0712793 18.35240234 6.80615234 17.47949219 C5.98280697 14.94711921 4.98896048 12.47240119 4 10 C3.67 18.91 3.34 27.82 3 37 C2.01 37 1.02 37 0 37 C0 24.79 0 12.58 0 0 Z " fill="#5A554C" transform="translate(217,257)"/>
<path d="M0 0 C0.66 0 1.32 0 2 0 C2 5.61 2 11.22 2 17 C5.63 17 9.26 17 13 17 C13 11.39 13 5.78 13 0 C13.99 0 14.98 0 16 0 C16 11.88 16 23.76 16 36 C15.01 36 14.02 36 13 36 C13 30.72 13 25.44 13 20 C9.7 20 6.4 20 3 20 C3 25.28 3 30.56 3 36 C2.01 36 1.02 36 0 36 C0 24.12 0 12.24 0 0 Z " fill="#413C33" transform="translate(67,257)"/>
<path d="M0 0 C3.96 0 7.92 0 12 0 C16 4 16 4 16.50170898 6.9609375 C16.49985596 8.08757812 16.49800293 9.21421875 16.49609375 10.375 C16.49673828 11.60734375 16.49738281 12.8396875 16.49804688 14.109375 C16.47806641 15.39328125 16.45808594 16.6771875 16.4375 18 C16.44458984 19.28390625 16.45167969 20.5678125 16.45898438 21.890625 C16.38612603 32.60640567 16.38612603 32.60640567 13 36 C10 37 10 37 0 37 C0 24.79 0 12.58 0 0 Z M3 2 C3 12.56 3 23.12 3 34 C5.97 34 8.94 34 12 34 C15.24858929 29.12711606 14.36885504 23.72710186 14.375 18 C14.39949219 16.79859375 14.42398438 15.5971875 14.44921875 14.359375 C14.45308594 13.20953125 14.45695313 12.0596875 14.4609375 10.875 C14.46915527 9.82054687 14.47737305 8.76609375 14.48583984 7.6796875 C14.22147249 4.9431339 14.22147249 4.9431339 12.40869141 3.1328125 C9.38789136 1.50348417 9.38789136 1.50348417 3 2 Z " fill="#3C372E" transform="translate(185,257)"/>
<path d="M0 0 C3.1850357 1.76015131 3.83296972 2.49890916 5 6 C5.25853371 9.95399893 5.23137931 13.91344802 5.25 17.875 C5.270625 18.96425781 5.29125 20.05351562 5.3125 21.17578125 C5.31765625 22.22894531 5.3228125 23.28210938 5.328125 24.3671875 C5.34214355 25.80747314 5.34214355 25.80747314 5.35644531 27.27685547 C4.9303999 30.53172568 3.93250849 32.36501844 2 35 C-1 37 -1 37 -4.5 36.8125 C-9.057444 35.75452193 -9.057444 35.75452193 -11 33 C-11.56641136 28.87974236 -11.47267023 24.75933065 -11.44604492 20.60327148 C-11.43754133 18.57237181 -11.46628379 16.5442931 -11.49804688 14.51367188 C-11.49740234 13.23169922 -11.49675781 11.94972656 -11.49609375 10.62890625 C-11.49794678 9.45400635 -11.4997998 8.27910645 -11.50170898 7.06860352 C-10.39942325 0.32669143 -6.25869339 -0.78233667 0 0 Z M-7.63354492 3.66772461 C-9.32925197 6.56196963 -9.3731697 8.41241131 -9.36328125 11.75390625 C-9.36263672 12.85541016 -9.36199219 13.95691406 -9.36132812 15.09179688 C-9.34521484 16.23712891 -9.32910156 17.38246094 -9.3125 18.5625 C-9.31572266 19.71169922 -9.31894531 20.86089844 -9.32226562 22.04492188 C-9.50068967 28.38635697 -9.50068967 28.38635697 -7 34 C-3.5 34.41666667 -3.5 34.41666667 0 34 C3.25458869 30.74541131 2.29603956 26.80525164 2.32226562 22.37304688 C2.31743164 20.48682617 2.31743164 20.48682617 2.3125 18.5625 C2.32861328 17.30888672 2.34472656 16.05527344 2.36132812 14.76367188 C2.36197266 13.56419922 2.36261719 12.36472656 2.36328125 11.12890625 C2.36626221 10.02619385 2.36924316 8.92348145 2.37231445 7.78735352 C2.22705099 4.99669854 2.22705099 4.99669854 0.63354492 3.14428711 C-2.3867576 1.02858573 -5.03444484 1.01424192 -7.63354492 3.66772461 Z " fill="#312C23" transform="translate(101,257)"/>
<path d="M0 0 C3.9375 0.5 3.9375 0.5 5.875 1.5625 C7.44918665 4.43307565 7.63323087 7.2747472 7.9375 10.5 C6.9475 10.17 5.9575 9.84 4.9375 9.5 C4.6075 7.85 4.2775 6.2 3.9375 4.5 C-0.04004128 3.76665571 -0.04004128 3.76665571 -4.0625 3.5 C-4.72109424 9.79964851 -4.72109424 9.79964851 -1.9375 15.25 C-0.98875 15.9925 -0.04 16.735 0.9375 17.5 C7.77838843 23.11345629 7.77838843 23.11345629 8.375 28.3125 C8.32074023 32.02929458 7.95383253 32.48048064 5.375 35.5625 C1.9375 37.5 1.9375 37.5 -1.75 37.5625 C-5.0625 36.5 -5.0625 36.5 -7 34.8125 C-8.33398038 31.90913094 -8.27786552 29.65869424 -8.0625 26.5 C-7.0725 26.5 -6.0825 26.5 -5.0625 26.5 C-4.4025 28.81 -3.7425 31.12 -3.0625 33.5 C-1.06295254 33.54254356 0.93791636 33.54080783 2.9375 33.5 C4.76655695 31.67094305 4.68592369 29.35306675 4.69921875 26.90234375 C3.24689581 22.32194062 -0.96413537 19.56710543 -4.55859375 16.6015625 C-7.71768455 13.95009472 -7.98736127 13.29647052 -8.375 9.1875 C-8.0625 5.5 -8.0625 5.5 -6.5625 2.5625 C-3.924344 0.3860213 -3.25717152 0.13796491 0 0 Z " fill="#39332A" transform="translate(273.0625,256.5)"/>
<path d="M0 0 C0.66 0 1.32 0 2 0 C2.60736227 1.33188071 3.21067185 2.6656095 3.8125 4 C4.14894531 4.7425 4.48539062 5.485 4.83203125 6.25 C6.33442748 9.78741453 7.65054824 13.40146198 9 17 C10.98 11.39 12.96 5.78 15 0 C15.99 0 16.98 0 18 0 C16.58619801 5.03399194 15.10779748 9.82799147 12.875 14.5625 C9.89629366 21.64545439 10.17569027 29.42774934 10 37 C9.01 37 8.02 37 7 37 C6.98582031 36.01902344 6.97164063 35.03804688 6.95703125 34.02734375 C6.68987305 25.11093874 5.2995866 17.65645975 2.15625 9.3046875 C1.063484 6.18144413 0.43763417 3.27231005 0 0 Z " fill="#433E34" transform="translate(309,257)"/>
<path d="M0 0 C3.63061667 1.53218685 5.9863773 3.7183144 8.75 6.5 C9.54921875 7.2940625 10.3484375 8.088125 11.171875 8.90625 C13 11 13 11 13 13 C12.01 13 11.02 13 10 13 C10.01160156 13.71027344 10.02320313 14.42054688 10.03515625 15.15234375 C10.04417969 16.07144531 10.05320313 16.99054688 10.0625 17.9375 C10.07410156 18.85402344 10.08570313 19.77054688 10.09765625 20.71484375 C10 23 10 23 9 24 C6.3226862 24.09981214 3.67695825 24.13879875 1 24.125 C-0.12535156 24.13080078 -0.12535156 24.13080078 -1.2734375 24.13671875 C-6.87338947 24.12661053 -6.87338947 24.12661053 -8 23 C-8.07205511 21.31391034 -8.08386068 19.62499341 -8.0625 17.9375 C-8.05347656 17.01839844 -8.04445312 16.09929687 -8.03515625 15.15234375 C-8.01775391 14.08693359 -8.01775391 14.08693359 -8 13 C-8.99 13 -9.98 13 -11 13 C-10.34 9.37 -9.68 5.74 -9 2 C-7.329375 2.061875 -7.329375 2.061875 -5.625 2.125 C-1.95633975 2.41121859 -1.95633975 2.41121859 0 0 Z M-5 6 C-5 5.01 -5 4.02 -5 3 C-5.66 3 -6.32 3 -7 3 C-7.144375 4.11375 -7.28875 5.2275 -7.4375 6.375 C-8 10 -8 10 -9 12 C-8.01 12 -7.02 12 -6 12 C-6 15.3 -6 18.6 -6 22 C-1.38 22 3.24 22 8 22 C8 18.7 8 15.4 8 12 C8.99 11.67 9.98 11.34 11 11 C9.54782324 9.49403892 8.08807139 7.99537896 6.625 6.5 C5.81289062 5.6646875 5.00078125 4.829375 4.1640625 3.96875 C0.18367798 0.34760596 -1.38117687 2.95257 -5 6 Z " fill="#B9B5AD" transform="translate(196,136)"/>
<path d="M0 0 C4.62 0 9.24 0 14 0 C14 0.66 14 1.32 14 2 C10.04 2 6.08 2 2 2 C2 6.95 2 11.9 2 17 C5.3 17 8.6 17 12 17 C12 17.66 12 18.32 12 19 C8.7 19 5.4 19 2 19 C2 24.28 2 29.56 2 35 C5.96 35 9.92 35 14 35 C14 35.33 14 35.66 14 36 C9.38 36 4.76 36 0 36 C0 24.12 0 12.24 0 0 Z " fill="#28231A" transform="translate(134,257)"/>
<path d="M0 0 C1.9375 0.8125 1.9375 0.8125 3.9375 2.8125 C4.23828125 5.08984375 4.23828125 5.08984375 4.25 7.75 C4.26675781 8.62527344 4.28351563 9.50054687 4.30078125 10.40234375 C3.9375 12.8125 3.9375 12.8125 2.58203125 14.640625 C0.9375 15.8125 0.9375 15.8125 -1.6875 15.625 C-4.0625 14.8125 -4.0625 14.8125 -5.0625 12.8125 C-5.20890501 11.17107459 -5.28346589 9.5226859 -5.3125 7.875 C-5.33828125 6.99972656 -5.3640625 6.12445313 -5.390625 5.22265625 C-5.0625 2.8125 -5.0625 2.8125 -3.67578125 0.984375 C-2.0625 -0.1875 -2.0625 -0.1875 0 0 Z " fill="#CFC9BE" transform="translate(212.0625,303.1875)"/>
<path d="M0 0 C1.9375 0.8125 1.9375 0.8125 3.9375 2.8125 C4.23828125 5.08984375 4.23828125 5.08984375 4.25 7.75 C4.26675781 8.62527344 4.28351563 9.50054687 4.30078125 10.40234375 C3.9375 12.8125 3.9375 12.8125 2.58203125 14.640625 C0.9375 15.8125 0.9375 15.8125 -1.6875 15.625 C-4.0625 14.8125 -4.0625 14.8125 -5.0625 12.8125 C-5.20890501 11.17107459 -5.28346589 9.5226859 -5.3125 7.875 C-5.33828125 6.99972656 -5.3640625 6.12445313 -5.390625 5.22265625 C-5.0625 2.8125 -5.0625 2.8125 -3.67578125 0.984375 C-2.0625 -0.1875 -2.0625 -0.1875 0 0 Z " fill="#CDC7BC" transform="translate(239.0625,303.1875)"/>
<path d="M0 0 C1.98 0 3.96 0 6 0 C8.51012963 2.51012963 8.29721609 3.46805237 8.3125 6.9375 C8.32925781 7.81277344 8.34601563 8.68804687 8.36328125 9.58984375 C8 12 8 12 6.79296875 13.81640625 C5 15 5 15 0 15 C0 10.05 0 5.1 0 0 Z " fill="#CAC3B9" transform="translate(197,304)"/>
<path d="M0 0 C0.33 0 0.66 0 1 0 C3.00967374 7.35616427 4.44046187 14.3902814 5 22 C2.03 22 -0.94 22 -4 22 C-3.44046187 14.3902814 -2.00967374 7.35616427 0 0 Z " fill="#F2EBE1" transform="translate(249,261)"/>
<path d="M0 0 C1.65 0.33 3.3 0.66 5 1 C5.67466746 4.22754814 6.33830569 7.45726935 7 10.6875 C7.19078125 11.59951172 7.3815625 12.51152344 7.578125 13.45117188 C7.75859375 14.33740234 7.9390625 15.22363281 8.125 16.13671875 C8.29257813 16.94842529 8.46015625 17.76013184 8.6328125 18.59643555 C9.0153713 21.10061865 9.06298509 23.47075502 9 26 C7.2791123 23.41866846 6.5348737 21.87205794 5.7109375 18.98828125 C5.49179688 18.23095703 5.27265625 17.47363281 5.046875 16.69335938 C4.71429688 15.51483398 4.71429688 15.51483398 4.375 14.3125 C4.14554688 13.51521484 3.91609375 12.71792969 3.6796875 11.89648438 C3.11513764 9.9323213 2.55695012 7.96633153 2 6 C1.80664062 6.83144531 1.61328125 7.66289062 1.4140625 8.51953125 C1.02347656 10.14955078 1.02347656 10.14955078 0.625 11.8125 C0.36976563 12.89144531 0.11453125 13.97039062 -0.1484375 15.08203125 C-1 18 -1 18 -3 21 C-3.43230491 13.65081658 -1.81774185 7.09784913 0 0 Z " fill="#39332A" transform="translate(247,257)"/>
<path d="M0 0 C1.32073174 0.6502064 2.63654394 1.31107764 3.9375 2 C0.9375 3 0.9375 3 -1.375 2.0625 C-4.44006511 0.85073007 -6.79618961 0.84807859 -10.0625 1 C-10.3925 2.65 -10.7225 4.3 -11.0625 6 C-15.0225 6 -18.9825 6 -23.0625 6 C-23.3925 5.34 -23.7225 4.68 -24.0625 4 C-26.07919827 2.86649466 -26.07919827 2.86649466 -28.0625 2 C-27.17498047 1.81824219 -27.17498047 1.81824219 -26.26953125 1.6328125 C-21.30626413 0.60638763 -21.30626413 0.60638763 -16.5625 -1.125 C-10.74917643 -3.15966325 -5.55915759 -2.46879124 0 0 Z " fill="#A6A29A" transform="translate(194.0625,122)"/>
<path d="M0 0 C5.61 0 11.22 0 17 0 C17 0.66 17 1.32 17 2 C14.69 2 12.38 2 10 2 C10 13.55 10 25.1 10 37 C9.34 37 8.68 37 8 37 C8 25.45 8 13.9 8 2 C5.36 2 2.72 2 0 2 C0 1.34 0 0.68 0 0 Z " fill="#312C23" transform="translate(111,257)"/>
<path d="M0 0 C5.61 0 11.22 0 17 0 C17 0.66 17 1.32 17 2 C14.69 2 12.38 2 10 2 C10 13.22 10 24.44 10 36 C9.34 36 8.68 36 8 36 C8 24.78 8 13.56 8 2 C5.36 2 2.72 2 0 2 C0 1.34 0 0.68 0 0 Z " fill="#2B261D" transform="translate(286,257)"/>
<path d="M0 0 C0.55945313 0.2165625 1.11890625 0.433125 1.6953125 0.65625 C12.86307038 4.53444245 24.42691019 3.18698357 36 2 C28.76440305 5.9316714 20.11768696 6.74056092 12 6 C11.05125 5.67 10.1025 5.34 9.125 5 C4.9826338 3.67444281 1.22045452 3.94716275 -3.09765625 4.125 C-6.15994986 3.99311118 -8.24326939 3.29490466 -11 2 C-11 1.67 -11 1.34 -11 1 C-7.37 1.33 -3.74 1.66 0 2 C0 1.34 0 0.68 0 0 Z " fill="#BFBBB3" transform="translate(183,126)"/>
<path d="M0 0 C0.99 0.33 1.98 0.66 3 1 C3.29797657 3.93010297 3.50083081 6.14262846 3 9 C0.4375 12.0625 0.4375 12.0625 -3 14 C-6.88083932 14.06577694 -8.98188567 13.88674474 -11.9375 11.3125 C-13.27148038 8.40913094 -13.21536552 6.15869424 -13 3 C-12.01 3 -11.02 3 -10 3 C-9.34 5.31 -8.68 7.62 -8 10 C-6.00045254 10.04254356 -3.99958364 10.04080783 -2 10 C-0.41727399 8.41727399 -0.65264253 6.61965997 -0.4375 4.4375 C-0.35371094 3.61121094 -0.26992188 2.78492188 -0.18359375 1.93359375 C-0.12300781 1.29550781 -0.06242187 0.65742188 0 0 Z " fill="#4C473D" transform="translate(278,280)"/>
<path d="M0 0 C0.66 0 1.32 0 2 0 C2 3.96 2 7.92 2 12 C7.28 12.33 12.56 12.66 18 13 C13.69044321 15.87303786 9.98699311 15.0083241 4.93359375 14.77734375 C3.48146484 14.88755859 3.48146484 14.88755859 2 15 C1.01 16.485 1.01 16.485 0 18 C-3.625 18.1875 -3.625 18.1875 -7 18 C-7 17.34 -7 16.68 -7 16 C-4.69 16 -2.38 16 0 16 C0 10.72 0 5.44 0 0 Z " fill="#B1ACA5" transform="translate(174,169)"/>
<path d="M0 0 C1.98 0 3.96 0 6 0 C7 1 7 1 7.125 3.8125 C7.02143268 6.45346678 6.6935793 8.48577504 6 11 C6 11.99 6 12.98 6 14 C5.34 13.34 4.68 12.68 4 12 C4 11.01 4 10.02 4 9 C3.01 9 2.02 9 1 9 C1 10.65 1 12.3 1 14 C0.67 14 0.34 14 0 14 C0 9.38 0 4.76 0 0 Z " fill="#888177" transform="translate(265,304)"/>
<path d="M0 0 C0.66 0 1.32 0 2 0 C1.9375 2.1875 1.9375 2.1875 1 5 C-7.93368029 13.32456572 -19.86235454 14.60150518 -31.56640625 14.3359375 C-34.65527236 14.03372762 -36.41958998 13.6414822 -39 12 C-37.52853516 12.06960937 -37.52853516 12.06960937 -36.02734375 12.140625 C-23.24577631 12.55720706 -10.36952395 11.25329458 0 3 C0 2.01 0 1.02 0 0 Z " fill="#CBC7C0" transform="translate(228,171)"/>
<path d="M0 0 C0.33 0 0.66 0 1 0 C1.31293072 4.24800106 1.56802917 8.49755326 1.8125 12.75 C1.90208984 13.9565625 1.99167969 15.163125 2.08398438 16.40625 C2.14521484 17.56640625 2.20644531 18.7265625 2.26953125 19.921875 C2.37164917 21.52434082 2.37164917 21.52434082 2.47583008 23.15917969 C2 26 2 26 -0.28637695 28.38378906 C-3 30 -3 30 -6.6875 29.9375 C-10 29 -10 29 -12 26 C-11.34 25.34 -10.68 24.68 -10 24 C-9.67 24.66 -9.34 25.32 -9 26 C-6.66705225 26.04241723 -4.33297433 26.04092937 -2 26 C-0.25493385 24.25493385 -0.76717216 21.80960857 -0.68359375 19.43359375 C-0.64169922 18.30888672 -0.59980469 17.18417969 -0.55664062 16.02539062 C-0.51732422 14.84138672 -0.47800781 13.65738281 -0.4375 12.4375 C-0.39431641 11.24962891 -0.35113281 10.06175781 -0.30664062 8.83789062 C-0.20016454 5.89205216 -0.09815159 2.9461257 0 0 Z " fill="#4B463D" transform="translate(103,264)"/>
<path d="M0 0 C4.55555556 0.55555556 4.55555556 0.55555556 6 2 C6.04092937 4.33297433 6.04241723 6.66705225 6 9 C3.69 9 1.38 9 -1 9 C-1.625 5.625 -1.625 5.625 -2 2 C-1.34 1.34 -0.68 0.68 0 0 Z " fill="#B5B1A9" transform="translate(195,149)"/>
<path d="M0 0 C0.66 0 1.32 0 2 0 C2.53122363 1.76774419 3.04964073 3.53934083 3.5625 5.3125 C3.85253906 6.29863281 4.14257812 7.28476562 4.44140625 8.30078125 C5 11 5 11 4 14 C3.67 13.34 3.34 12.68 3 12 C0.47266765 11.34444881 0.47266765 11.34444881 -2 11 C-2 11.99 -2 12.98 -2 14 C-2.66 13.67 -3.32 13.34 -4 13 C-2.68 8.71 -1.36 4.42 0 0 Z " fill="#A8A197" transform="translate(258,304)"/>
<path d="M0 0 C1.98 0.99 1.98 0.99 4 2 C4.83886169 4.67790463 4.81766414 7.1737941 5 10 C3 9 3 9 2 6 C1.67 15.57 1.34 25.14 1 35 C0.67 35 0.34 35 0 35 C0 23.45 0 11.9 0 0 Z " fill="#1A150C" transform="translate(218,258)"/>
<path d="M0 0 C3.63061667 1.53218685 5.9863773 3.7183144 8.75 6.5 C9.54921875 7.2940625 10.3484375 8.088125 11.171875 8.90625 C13 11 13 11 13 13 C11.68 12.67 10.36 12.34 9 12 C9 11.34 9 10.68 9 10 C7.44316885 8.19939002 7.44316885 8.19939002 5.5 6.375 C4.8503125 5.74335938 4.200625 5.11171875 3.53125 4.4609375 C3.0259375 3.97882813 2.520625 3.49671875 2 3 C1.401875 3.309375 0.80375 3.61875 0.1875 3.9375 C-2 5 -2 5 -5 6 C-5 5.01 -5 4.02 -5 3 C-5.99 3.33 -6.98 3.66 -8 4 C-8 3.34 -8 2.68 -8 2 C-7.05125 2.04125 -6.1025 2.0825 -5.125 2.125 C-1.89755144 2.34973818 -1.89755144 2.34973818 0 0 Z " fill="#D8D4CD" transform="translate(196,136)"/>
<path d="M0 0 C-1.46373047 0.72316406 -1.46373047 0.72316406 -2.95703125 1.4609375 C-4.24224049 2.09885158 -5.52739382 2.73687831 -6.8125 3.375 C-7.45509766 3.69210938 -8.09769531 4.00921875 -8.75976562 4.3359375 C-11.63194461 5.76458611 -14.3267821 7.21785473 -17 9 C-17 9.66 -17 10.32 -17 11 C-15.35 11.33 -13.7 11.66 -12 12 C-12 12.33 -12 12.66 -12 13 C-13.98 13 -15.96 13 -18 13 C-18.33 11.35 -18.66 9.7 -19 8 C-6.4852878 -2.0442755 -6.4852878 -2.0442755 0 0 Z " fill="#C7C3BB" transform="translate(183,113)"/>
<path d="M0 0 C-0.33 0.66 -0.66 1.32 -1 2 C-3.14453125 2.66796875 -3.14453125 2.66796875 -5.8125 3.1875 C-6.68519531 3.36667969 -7.55789062 3.54585937 -8.45703125 3.73046875 C-10.97357778 3.99719949 -12.61667355 3.78333107 -15 3 C-14 0 -14 0 -11.4375 -1.3125 C-6.95136528 -2.20972694 -4.3409451 -1.34718986 0 0 Z " fill="#8E8A82" transform="translate(229,170)"/>
<path d="M0 0 C2.33294775 -0.04241723 4.66702567 -0.04092937 7 0 C7.33 0.33 7.66 0.66 8 1 C9.4887186 1.08669432 10.981445 1.10703494 12.47265625 1.09765625 C13.82133789 1.09282227 13.82133789 1.09282227 15.19726562 1.08789062 C16.14279297 1.07951172 17.08832031 1.07113281 18.0625 1.0625 C19.01189453 1.05798828 19.96128906 1.05347656 20.93945312 1.04882812 C23.29303065 1.0370011 25.64648477 1.02052025 28 1 C28 1.33 28 1.66 28 2 C17.605 3.485 17.605 3.485 7 5 C6.67 4.01 6.34 3.02 6 2 C3.03 1.505 3.03 1.505 0 1 C0 0.67 0 0.34 0 0 Z " fill="#C6C2BA" transform="translate(167,164)"/>
<path d="M0 0 C0.33 0 0.66 0 1 0 C1 1.65 1 3.3 1 5 C3.97 5 6.94 5 10 5 C10 5.33 10 5.66 10 6 C5.545 6.495 5.545 6.495 1 7 C0.34 9.31 -0.32 11.62 -1 14 C-1.66 14 -2.32 14 -3 14 C-2.58846263 9.02906176 -2.20399168 4.55491614 0 0 Z " fill="#302B22" transform="translate(243,279)"/>
<path d="M0 0 C0.33 1.32 0.66 2.64 1 4 C1.66 4 2.32 4 3 4 C3 4.66 3 5.32 3 6 C3.99 6 4.98 6 6 6 C5.67 7.65 5.34 9.3 5 11 C3.35 10.67 1.7 10.34 0 10 C0 6.7 0 3.4 0 0 Z " fill="#F4EDE2" transform="translate(246,306)"/>
<path d="M0 0 C1.65 0 3.3 0 5 0 C5 1.98 5 3.96 5 6 C3.02 6.33 1.04 6.66 -1 7 C-0.67 4.69 -0.34 2.38 0 0 Z " fill="#DAD4CA" transform="translate(168,310)"/>
<path d="M0 0 C2.4375 1.5 2.4375 1.5 4 3 C3.67 3.66 3.34 4.32 3 5 C2.1646875 4.505 2.1646875 4.505 1.3125 4 C-1.38858329 2.83196398 -3.08537214 2.62632976 -6 3 C-7.81476003 4.39585785 -7.81476003 4.39585785 -9 6 C-9.33 4.68 -9.66 3.36 -10 2 C-6.28986601 -0.47342266 -4.38939738 -0.38503486 0 0 Z " fill="#3C372E" transform="translate(101,257)"/>
<path d="M0 0 C0.99 0 1.98 0 3 0 C3.66 2.31 4.32 4.62 5 7 C6.65 7.33 8.3 7.66 10 8 C10 8.33 10 8.66 10 9 C7.69 9.33 5.38 9.66 3 10 C0.64551835 7.44931155 0.01672076 6.28982642 -0.1875 2.75 C-0.125625 1.8425 -0.06375 0.935 0 0 Z " fill="#504B41" transform="translate(265,283)"/>
<path d="M0 0 C2.7930115 4.18951725 1.91461658 7.20875168 1 12 C-0.0625 15.0625 -0.0625 15.0625 -1 17 C-1.33 17 -1.66 17 -2 17 C-2.21824777 10.9981863 -1.5056904 5.80766296 0 0 Z " fill="#454037" transform="translate(246,261)"/>
<path d="M0 0 C1.53674273 2.99004241 2.90306293 6.01823885 4.1875 9.125 C4.55230469 9.99382812 4.91710937 10.86265625 5.29296875 11.7578125 C6 14 6 14 5 16 C4.34 16 3.68 16 3 16 C2.29695778 14.27709395 1.61316509 12.54632534 0.9375 10.8125 C0.55464844 9.84957031 0.17179688 8.88664062 -0.22265625 7.89453125 C-1.05622133 4.79065325 -0.88679818 3.05080883 0 0 Z " fill="#3C372E" transform="translate(223,265)"/>
<path d="M0 0 C2.475 0.495 2.475 0.495 5 1 C4.67 2.65 4.34 4.3 4 6 C2.68 6 1.36 6 0 6 C0 4.02 0 2.04 0 0 Z " fill="#F6EEE3" transform="translate(266,305)"/>
<path d="M0 0 C1.32 0 2.64 0 4 0 C4 2.31 4 4.62 4 7 C2.68 7 1.36 7 0 7 C0 4.69 0 2.38 0 0 Z " fill="#221D14" transform="translate(195,151)"/>
<path d="M0 0 C1.9375 0.5 1.9375 0.5 4 2 C4.68790422 4.69658452 4.81946464 7.2017019 5 10 C3 9 3 9 2 6 C1.34 5.67 0.68 5.34 0 5 C0 3.35 0 1.7 0 0 Z " fill="#28231A" transform="translate(218,258)"/>
<path d="M0 0 C1.32 0.66 2.64 1.32 4 2 C-0.33042455 4.23082477 -3.28727465 4.0472723 -8 3 C-8.99 2.34 -9.98 1.68 -11 1 C-7.37 1.33 -3.74 1.66 0 2 C0 1.34 0 0.68 0 0 Z " fill="#DAD6CE" transform="translate(183,126)"/>
<path d="M0 0 C2.64 0 5.28 0 8 0 C5.38485683 2.12038635 2.80362384 4.13091744 0 6 C0 4.02 0 2.04 0 0 Z " fill="#FEFEFE" transform="translate(0,0)"/>
<path d="M0 0 C0.99 0 1.98 0 3 0 C2.01 3.3 1.02 6.6 0 10 C-2 6 -2 6 -1.125 2.75 C-0.75375 1.8425 -0.3825 0.935 0 0 Z " fill="#474138" transform="translate(324,257)"/>
<path d="M0 0 C0.99 0.33 1.98 0.66 3 1 C-1.30769231 4.93846154 -1.30769231 4.93846154 -4.8125 5.25 C-5.534375 5.1675 -6.25625 5.085 -7 5 C-7 4.34 -7 3.68 -7 3 C-5.5459375 2.5359375 -5.5459375 2.5359375 -4.0625 2.0625 C-1.15934208 1.30476658 -1.15934208 1.30476658 0 0 Z " fill="#363027" transform="translate(277,289)"/>
<path d="M0 0 C3.35595828 0.59927826 5.37801226 1.84622436 8 4 C7.67 4.66 7.34 5.32 7 6 C4.50638429 4.79618552 2.31856917 3.54571278 0 2 C0 1.34 0 0.68 0 0 Z " fill="#403B31" transform="translate(272,275)"/>
<path d="M0 0 C1.65 0 3.3 0 5 0 C4.01 0.66 3.02 1.32 2 2 C1.27034634 4.56282742 1.27034634 4.56282742 1 7 C-0.65 7 -2.3 7 -4 7 C-3.525625 6.5875 -3.05125 6.175 -2.5625 5.75 C-0.83733482 3.817815 -0.43415125 2.51807725 0 0 Z " fill="#5B574E" transform="translate(182,121)"/>
<path d="M0 0 C0.66 0.33 1.32 0.66 2 1 C2.40729228 3.32156597 2.74438677 5.6568787 3 8 C2.01 7.67 1.02 7.34 0 7 C-0.38133299 5.0085944 -0.71325582 3.00720923 -1 1 C-0.67 0.67 -0.34 0.34 0 0 Z " fill="#4D483F" transform="translate(278,259)"/>
<path d="M0 0 C0.66 0.99 1.32 1.98 2 3 C-1.99560608 5.83022097 -5.42737323 4.76210446 -10 4 C-10 3.67 -10 3.34 -10 3 C-9.36191406 2.95101563 -8.72382813 2.90203125 -8.06640625 2.8515625 C-7.24011719 2.77679688 -6.41382813 2.70203125 -5.5625 2.625 C-4.73878906 2.55539062 -3.91507813 2.48578125 -3.06640625 2.4140625 C-2.38449219 2.27742188 -1.70257813 2.14078125 -1 2 C-0.67 1.34 -0.34 0.68 0 0 Z " fill="#4E493F" transform="translate(198,288)"/>
<path d="M0 0 C1.5 1.25 1.5 1.25 3 3 C3 4.32 3 5.64 3 7 C3.66 7.33 4.32 7.66 5 8 C4.01 8.33 3.02 8.66 2 9 C0.50178941 5.62902617 0 3.79557881 0 0 Z " fill="#2B251C" transform="translate(227,280)"/>
<path d="M0 0 C1.65 0 3.3 0 5 0 C5 0.99 5 1.98 5 3 C3.35 3.33 1.7 3.66 0 4 C0 2.66666667 0 1.33333333 0 0 Z " fill="#817D75" transform="translate(212,166)"/>
</svg>
